<?xml version="1.0" standalone="no"?><!DOCTYPE svg PUBLIC "-//W3C//DTD SVG 1.1//EN" "http://www.w3.org/Graphics/SVG/1.1/DTD/svg11.dtd"><svg t="1762937217940" class="icon" viewBox="0 0 1024 1024" version="1.1" xmlns="http://www.w3.org/2000/svg" p-id="6884" xmlns:xlink="http://www.w3.org/1999/xlink" width="200" height="200"><path d="M0 0m409.6 0l204.8 0q409.6 0 409.6 409.6l0 204.8q0 409.6-409.6 409.6l-204.8 0q-409.6 0-409.6-409.6l0-204.8q0-409.6 409.6-409.6Z" fill="#FA7301" opacity=".2" p-id="6885"></path><path d="M488.9088 235.52a253.39904 253.39904 0 0 1 197.98016 411.5456l96.93184 96.93184a28.14976 28.14976 0 0 1-38.28736 41.24672l-1.536-1.42336-96.93184-96.93184A253.3888 253.3888 0 1 1 488.9088 235.52z m0 56.32a197.07904 197.07904 0 1 0 197.07904 197.07904 197.07904 197.07904 0 0 0-197.07904-197.08928z" fill="#FA7301" p-id="6886"></path></svg>